<svg width="40" height="40" viewBox="0 0 40 40" fill="none" xmlns="http://www.w3.org/2000/svg">
<g clip-path="url(#clip0_7468_399999)">
<circle cx="20" cy="20" r="20" fill="white"/>
<mask id="mask0_7468_399999" style="mask-type:alpha" maskUnits="userSpaceOnUse" x="0" y="0" width="40" height="40">
<circle cx="20" cy="20" r="20" fill="#FCFCFC"/>
</mask>
<g mask="url(#mask0_7468_399999)">
<rect x="6.5" y="35.5" width="27.5" height="5" fill="#DC1E11"/>
<rect x="6.5" y="35.5" width="27.5" height="5" fill="#DC1E11"/>
<rect x="0.5" y="25.5" width="39.5" height="5" fill="#DC1E11"/>
<rect x="0.5" y="25.5" width="39.5" height="5" fill="#DC1E11"/>
<rect x="0.5" y="15" width="39.5" height="5" fill="#DC1E11"/>
<rect x="0.5" y="15" width="39.5" height="5" fill="#DC1E11"/>
<rect x="0.5" y="5" width="39.5" height="5" fill="#DC1E11"/>
<rect x="0.5" y="5" width="39.5" height="5" fill="#DC1E11"/>
<rect width="20.5" height="20" fill="#0052AF"/>
<path d="M16.5 16.75L15 17.5L15.5 16L14.5 15H16L16.5 13.5L17.25 15H18.5L17.5 16L18 17.5L16.5 16.75Z" fill="#FCFCFC"/>
<path d="M9.5 16.75L8 17.5L8.5 16L7.5 15H9L9.5 13.5L10.25 15H11.5L10.5 16L11 17.5L9.5 16.75Z" fill="#FCFCFC"/>
<path d="M2.5 16.75L1 17.5L1.5 16L0.5 15H2L2.5 13.5L3.25 15H4.5L3.5 16L4 17.5L2.5 16.75Z" fill="#FCFCFC"/>
<path d="M16.5 11.25L15 12L15.5 10.5L14.5 9.5H16L16.5 8L17.25 9.5H18.5L17.5 10.5L18 12L16.5 11.25Z" fill="#FCFCFC"/>
<path d="M16.5 5.75L15 6.5L15.5 5L14.5 4H16L16.5 2.5L17.25 4H18.5L17.5 5L18 6.5L16.5 5.75Z" fill="#FCFCFC"/>
<path d="M16.5 0.25L15 1L15.5 -0.5L14.5 -1.5H16L16.5 -3L17.25 -1.5H18.5L17.5 -0.5L18 1L16.5 0.25Z" fill="#FCFCFC"/>
<path d="M9.5 5.75L8 6.5L8.5 5L7.5 4H9L9.5 2.5L10.25 4H11.5L10.5 5L11 6.5L9.5 5.75Z" fill="#FCFCFC"/>
<path d="M9.5 11.25L8 12L8.5 10.5L7.5 9.5H9L9.5 8L10.25 9.5H11.5L10.5 10.5L11 12L9.5 11.25Z" fill="#FCFCFC"/>
<path d="M2.5 11.25L1 12L1.5 10.5L0.5 9.5H2L2.5 8L3.25 9.5H4.5L3.5 10.5L4 12L2.5 11.25Z" fill="#FCFCFC"/>
</g>
</g>
<defs>
<clipPath id="clip0_7468_399999">
<rect width="40" height="40" rx="20" fill="white"/>
</clipPath>
</defs>
</svg>
