<svg width="64" height="64" viewBox="0 0 64 64" fill="none" xmlns="http://www.w3.org/2000/svg">
<path d="M60 32C60 47.464 47.464 60 32 60C16.536 60 4 47.464 4 32C4 16.536 16.536 4 32 4C47.464 4 60 16.536 60 32ZM8.09369 32C8.09369 45.2031 18.7969 55.9063 32 55.9063C45.2031 55.9063 55.9063 45.2031 55.9063 32C55.9063 18.7969 45.2031 8.09369 32 8.09369C18.7969 8.09369 8.09369 18.7969 8.09369 32Z" fill="#EEEFF0"/>
<path d="M32 4C36.1161 4 40.1816 4.90749 43.9069 6.65784C47.6323 8.40819 50.926 10.9584 53.5534 14.1268C56.1808 17.2952 58.0774 21.0039 59.108 24.9889C60.1387 28.9738 60.2781 33.137 59.5163 37.182C58.7545 41.227 57.1103 45.0543 54.7007 48.3913C52.2912 51.7284 49.1755 54.4932 45.5756 56.4889C41.9756 58.4845 37.98 59.6619 33.8731 59.9373C29.7662 60.2126 25.6492 59.5791 21.815 58.0819L23.2889 54.3076C26.5682 55.5882 30.0895 56.13 33.602 55.8945C37.1146 55.659 40.5321 54.652 43.611 52.9451C46.69 51.2383 49.3549 48.8735 51.4157 46.0194C53.4766 43.1652 54.8829 39.8918 55.5345 36.4321C56.186 32.9725 56.0668 29.4117 55.1852 26.0034C54.3037 22.5951 52.6816 19.4231 50.4344 16.7132C48.1872 14.0033 45.3702 11.8221 42.1839 10.3251C38.9976 8.82801 35.5205 8.05185 32 8.05185V4Z" fill="url(#paint0_linear_10381_406363)"/>
<defs>
<linearGradient id="paint0_linear_10381_406363" x1="35.5636" y1="5.01818" x2="58.2182" y2="41.9273" gradientUnits="userSpaceOnUse">
<stop stop-color="#EEEFF0"/>
<stop offset="1" stop-color="#0673E7"/>
</linearGradient>
</defs>
</svg>
