<svg width="40" height="40" viewBox="0 0 40 40" fill="none" xmlns="http://www.w3.org/2000/svg">
<path d="M0 16C0 10.3995 0 7.59921 1.08993 5.46009C2.04867 3.57847 3.57847 2.04867 5.46009 1.08993C7.59921 0 10.3995 0 16 0H24C29.6005 0 32.4008 0 34.5399 1.08993C36.4215 2.04867 37.9513 3.57847 38.9101 5.46009C40 7.59921 40 10.3995 40 16V24C40 29.6005 40 32.4008 38.9101 34.5399C37.9513 36.4215 36.4215 37.9513 34.5399 38.9101C32.4008 40 29.6005 40 24 40H16C10.3995 40 7.59921 40 5.46009 38.9101C3.57847 37.9513 2.04867 36.4215 1.08993 34.5399C0 32.4008 0 29.6005 0 24V16Z" fill="#FF9543"/>
<path fill-rule="evenodd" clip-rule="evenodd" d="M16.7619 9.1001H23.2373C24.0454 9.10009 24.7062 9.10008 25.2433 9.14396C25.7992 9.18938 26.3013 9.28626 26.7702 9.52517C27.504 9.89908 28.1006 10.4957 28.4745 11.2295C28.7134 11.6984 28.8103 12.2005 28.8557 12.7564C28.8996 13.2935 28.8996 13.9543 28.8996 14.7624V25.2378C28.8996 26.0459 28.8996 26.7067 28.8557 27.2438C28.8103 27.7997 28.7134 28.3018 28.4745 28.7707C28.1006 29.5045 27.504 30.1011 26.7702 30.475C26.3013 30.7139 25.7992 30.8108 25.2433 30.8562C24.7062 30.9001 24.0454 30.9001 23.2373 30.9001H16.7619C15.9539 30.9001 15.293 30.9001 14.7559 30.8562C14.2 30.8108 13.6979 30.7139 13.229 30.475C12.4952 30.1011 11.8986 29.5045 11.5247 28.7707C11.2858 28.3018 11.1889 27.7997 11.1435 27.2438C11.0996 26.7067 11.0996 26.0459 11.0996 25.2378V14.7624C11.0996 13.9543 11.0996 13.2935 11.1435 12.7564C11.1889 12.2005 11.2858 11.6984 11.5247 11.2295C11.8986 10.4957 12.4952 9.89908 13.229 9.52517C13.6979 9.28626 14.2 9.18938 14.7559 9.14396C15.293 9.10008 15.9539 9.10009 16.7619 9.1001ZM14.9025 10.938C14.4579 10.9743 14.2191 11.0409 14.0462 11.129C13.6511 11.3303 13.3298 11.6516 13.1285 12.0467C13.0404 12.2196 12.9738 12.4584 12.9375 12.903C12.9003 13.3581 12.8996 13.9452 12.8996 14.8001V25.2001C12.8996 26.055 12.9003 26.6421 12.9375 27.0972C12.9738 27.5418 13.0404 27.7806 13.1285 27.9535C13.3298 28.3486 13.6511 28.6699 14.0462 28.8712C14.2191 28.9593 14.4579 29.0259 14.9025 29.0622C15.3576 29.0994 15.9447 29.1001 16.7996 29.1001H23.1996C24.0545 29.1001 24.6416 29.0994 25.0967 29.0622C25.5413 29.0259 25.7801 28.9593 25.953 28.8712C26.3481 28.6699 26.6694 28.3486 26.8707 27.9535C26.9588 27.7806 27.0254 27.5418 27.0617 27.0972C27.0989 26.6421 27.0996 26.055 27.0996 25.2001V14.8001C27.0996 13.9452 27.0989 13.3581 27.0617 12.903C27.0254 12.4584 26.9588 12.2196 26.8707 12.0467C26.6694 11.6516 26.3481 11.3303 25.953 11.129C25.7801 11.0409 25.5413 10.9743 25.0967 10.938C24.6416 10.9008 24.0545 10.9001 23.1996 10.9001H16.7996C15.9447 10.9001 15.3576 10.9008 14.9025 10.938ZM15.0996 15.0001C15.0996 14.503 15.5026 14.1001 15.9996 14.1001H23.9996C24.4967 14.1001 24.8996 14.503 24.8996 15.0001C24.8996 15.4972 24.4967 15.9001 23.9996 15.9001H15.9996C15.5026 15.9001 15.0996 15.4972 15.0996 15.0001ZM15.0996 19.0001C15.0996 18.503 15.5026 18.1001 15.9996 18.1001H21.9996C22.4967 18.1001 22.8996 18.503 22.8996 19.0001C22.8996 19.4972 22.4967 19.9001 21.9996 19.9001H15.9996C15.5026 19.9001 15.0996 19.4972 15.0996 19.0001ZM15.0996 23.0001C15.0996 22.503 15.5026 22.1001 15.9996 22.1001H17.9996C18.4967 22.1001 18.8996 22.503 18.8996 23.0001C18.8996 23.4972 18.4967 23.9001 17.9996 23.9001H15.9996C15.5026 23.9001 15.0996 23.4972 15.0996 23.0001Z" fill="white"/>
</svg>
