<svg width="487" height="80" viewBox="0 0 487 80" fill="none" xmlns="http://www.w3.org/2000/svg">
<g clip-path="url(#clip0_18429_41769)">
<path d="M483.569 39.4858V3.6001H453.771V9.84772H476.801V39.4858H472.244V24.3239H465.686V39.4858H462.445V24.3239H455.906V39.4858H451.712V45.5811H486.657V39.4858H483.569Z" fill="#084D9B"/>
<path d="M347.639 3.6001V21.8477H327.259V18.3239H342.454V3.6001H320.739V9.29534H335.934V12.6096H320.739V27.6001H347.639V33.4858H331.663V30.0382H325.143V47.2572H354.178V3.6001H347.639ZM347.639 41.6191H331.663V38.9715H347.639V41.6191Z" fill="#084D9B"/>
<path d="M230.851 18.3237V23.7904H246.121V29.619H252.851V23.7904H268.121V18.3237H230.851Z" fill="#084D9B"/>
<path d="M249.496 2.09521C243.567 2.09521 238.763 6.39998 238.763 11.6762C238.763 16.9524 243.586 21.2571 249.496 21.2571C255.406 21.2571 260.21 16.9714 260.21 11.6762C260.21 6.38093 255.425 2.09521 249.496 2.09521ZM249.496 16C246.865 16 244.73 14.0571 244.73 11.6571C244.73 9.25712 246.865 7.33331 249.496 7.33331C252.127 7.33331 254.243 9.27617 254.243 11.6571C254.243 14.0381 252.108 16 249.496 16Z" fill="#084D9B"/>
<path d="M252.737 0H246.655V5.2381H252.737V0Z" fill="#084D9B"/>
<path d="M215.599 3.6001V13.6001H209.365V19.7525H215.599V47.2382H222.424V3.6001H215.599Z" fill="#084D9B"/>
<path d="M198.651 18.762L204.923 34.762H211.977L202.216 11.2001L202.044 10.2858V3.6001H195.219V10.2858L195.048 11.2001L185.268 34.762H192.34L198.651 18.762Z" fill="#084D9B"/>
<path d="M309.987 3.6001H303.162V47.2382H309.987V3.6001Z" fill="#084D9B"/>
<path d="M286.1 18.762L292.391 34.762H299.406L289.665 11.2001L289.512 10.2668V3.6001H282.668V10.2668L282.496 11.2001L272.735 34.762H279.808L286.1 18.762Z" fill="#084D9B"/>
<path d="M440.426 12.3239V3.6001H433.906V30.1334L412.268 30.1144V36.2287H433.906V47.2382H440.426V18.4763H445.649V12.3239H440.426Z" fill="#084D9B"/>
<path d="M422.391 3.6V0H415.547V3.6H407.292V8.97143H430.608V3.6H422.391Z" fill="#084D9B"/>
<path d="M418.959 6.49512C412.935 6.49512 408.073 11.0094 408.073 16.5713C408.073 22.1332 412.935 26.6665 418.959 26.6665C424.983 26.6665 429.864 22.1523 429.864 16.5713C429.864 10.9904 424.983 6.49512 418.959 6.49512ZM418.959 21.0475C416.385 21.0475 414.231 19.0665 414.231 16.5713C414.231 14.0761 416.385 12.1142 418.959 12.1142C421.533 12.1142 423.706 14.1142 423.706 16.5713C423.706 19.0285 421.59 21.0475 418.959 21.0475Z" fill="#084D9B"/>
<path d="M392.231 3.6001V13.2953H389.009V3.6001H382.718V28.7239H371.412V9.562H379.496V3.6001H364.606V34.762H382.718V47.2382H389.009V19.9239H392.231V47.2382H398.484V3.6001H392.231Z" fill="#084D9B"/>
<path d="M264.633 39.505V27.124H234.32V31.8478H258.589V34.7621H234.32V47.2383H264.633V42.4955H240.345V39.505H264.633Z" fill="#084D9B"/>
<path d="M201.739 63.7144V72.5715C201.739 74.5905 201.663 76.6096 200.08 78.1334C198.765 79.4286 196.687 79.8858 194.857 79.8858C193.027 79.8858 190.949 79.4286 189.633 78.1334C188.07 76.6096 187.975 74.5905 187.975 72.5715V63.7144H192.073V72.0191C192.073 74.0572 192.226 76.3048 194.857 76.3048C197.488 76.3048 197.64 74.0763 197.64 72.0191V63.7144H201.739Z" fill="#084D9B"/>
<path d="M207.763 63.7144H211.862L219.354 73.3524H219.392V63.7144H223.491V79.4667H219.392L211.881 69.8286H211.843V79.4667H207.744V63.7144H207.763Z" fill="#084D9B"/>
<path d="M233.863 79.4667H229.764V63.7144H233.863V79.4667Z" fill="#084D9B"/>
<path d="M246.236 73.2953L250.068 63.7334H254.529L247.799 79.4858H244.615L238 63.7334H242.461L246.255 73.2953H246.236Z" fill="#084D9B"/>
<path d="M262.764 67.2001V69.8286H267.377V73.2953H262.764V76.0191H267.644V79.4858H258.665V63.7334H267.644V67.2001H262.764Z" fill="#084D9B"/>
<path d="M287.091 79.4667H281.753L277.902 73.4096H277.863V79.4667H273.765V63.7144H279.884C282.992 63.7144 285.375 65.2001 285.375 68.5715C285.375 70.7429 284.155 72.6286 281.924 73.0286L287.091 79.4858V79.4667ZM277.863 70.781H278.245C279.579 70.781 281.085 70.5334 281.085 68.8191C281.085 67.1048 279.579 66.8572 278.245 66.8572H277.863V70.781Z" fill="#084D9B"/>
<path d="M376.121 71.3145C376.121 76.4192 372.46 80.0002 367.408 80.0002C362.356 80.0002 358.677 76.4192 358.677 71.3145C358.677 66.5526 362.852 63.2002 367.408 63.2002C371.965 63.2002 376.121 66.5526 376.121 71.3145ZM362.928 71.3335C362.928 74.0383 364.93 76.0192 367.389 76.0192C369.849 76.0192 371.831 74.0383 371.831 71.3335C371.831 69.1431 369.829 67.1811 367.389 67.1811C364.949 67.1811 362.928 69.1621 362.928 71.3335Z" fill="#084D9B"/>
<path d="M385.52 67.2001V69.8286H390.019V73.2953H385.52V79.4858H381.421V63.7334H390.476V67.2001H385.501H385.52Z" fill="#084D9B"/>
<path d="M413.469 67.7906C412.706 67.1621 411.753 66.743 410.761 66.743C409.999 66.743 408.988 67.1811 408.988 68.0573C408.988 68.9335 410.094 69.3335 410.8 69.5621L411.848 69.8859C414.04 70.5335 415.737 71.6383 415.737 74.1906C415.737 75.7525 415.356 77.3716 414.117 78.4383C412.878 79.4859 411.219 79.924 409.637 79.924C407.654 79.924 405.69 79.2573 404.089 78.1335L405.843 74.8192C406.872 75.7144 408.073 76.4573 409.484 76.4573C410.437 76.4573 411.467 75.9811 411.467 74.8764C411.467 73.7144 409.865 73.3335 408.969 73.0859C406.396 72.3621 404.699 71.6763 404.699 68.6287C404.699 65.5811 406.968 63.3525 410.132 63.3525C411.715 63.3525 413.678 63.8478 415.07 64.6478L413.449 67.8287L413.469 67.7906Z" fill="#084D9B"/>
<path d="M425.307 67.2001V69.8286H429.92V73.2953H425.307V76.0191H430.168V79.4858H421.208V63.7334H430.168V67.2001H425.307Z" fill="#084D9B"/>
<path d="M452.588 71.3145C452.588 76.4192 448.928 80.0002 443.876 80.0002C438.824 80.0002 435.145 76.4192 435.145 71.3145C435.145 66.5526 439.339 63.2002 443.876 63.2002C448.413 63.2002 452.588 66.5526 452.588 71.3145ZM439.415 71.3335C439.415 74.0383 441.417 76.0192 443.876 76.0192C446.335 76.0192 448.318 74.0383 448.318 71.3335C448.318 69.1431 446.316 67.1811 443.876 67.1811C441.436 67.1811 439.415 69.1621 439.415 71.3335Z" fill="#084D9B"/>
<path d="M471.519 63.7144V72.5715C471.519 74.5905 471.443 76.6096 469.879 78.1334C468.545 79.4286 466.486 79.8858 464.637 79.8858C462.787 79.8858 460.728 79.4286 459.413 78.1334C457.85 76.6096 457.773 74.5905 457.773 72.5715V63.7144H461.872V72.0191C461.872 74.0572 462.025 76.3048 464.637 76.3048C467.248 76.3048 467.42 74.0763 467.42 72.0191V63.7144H471.519Z" fill="#084D9B"/>
<path d="M482.081 76.0001H486.98V79.4667H477.963V63.7144H482.081V76.0001Z" fill="#084D9B"/>
<path d="M299.997 67.7906C299.253 67.1621 298.281 66.743 297.271 66.743C296.527 66.743 295.536 67.1811 295.536 68.0573C295.536 68.9335 296.622 69.3335 297.328 69.5621L298.376 69.8859C300.569 70.5335 302.285 71.6383 302.285 74.1906C302.285 75.7525 301.903 77.3716 300.645 78.4383C299.406 79.4859 297.766 79.924 296.165 79.924C294.182 79.924 292.238 79.2573 290.617 78.1335L292.371 74.8192C293.382 75.7144 294.602 76.4573 296.012 76.4573C296.985 76.4573 298.014 75.9811 298.014 74.8764C298.014 73.7144 296.394 73.3335 295.536 73.0859C292.943 72.343 291.265 71.6763 291.265 68.6287C291.265 65.5811 293.553 63.3525 296.699 63.3525C298.3 63.3525 300.245 63.8478 301.636 64.6478L299.997 67.8287V67.7906Z" fill="#084D9B"/>
<path d="M311.779 79.4667H307.699V63.7144H311.779V79.4667Z" fill="#084D9B"/>
<path d="M324.247 79.4667H320.167V67.181H316.773V63.7144H327.869V67.181H324.247V79.4667Z" fill="#084D9B"/>
<path d="M331.148 63.7144H336.067L339.022 68.0001L341.957 63.7144H346.876L341.061 71.9048V79.4667H336.944V71.9048L331.129 63.7144H331.148Z" fill="#084D9B"/>
<path d="M117.57 3.63818H109.41V48.381L103.576 47.1239V3.63818H92.9194V44.8572L87.3335 43.6953V3.63818H73.8359V40.8191L69.4702 39.8858V3.63818H52.7698V36.3429L49.2429 35.581V3.63818H30.4072V31.6001L32.1612 31.981V78.4382H40.3398V33.7144L46.1735 34.9525V78.4382H56.8114V37.2001L62.3973 38.4001V78.4382H75.9139V41.2572L80.2797 42.1906V78.4382H96.9801V45.7334L100.507 46.4953V78.4382H119.324V50.4953L117.57 50.1144V3.63818Z" fill="#084D9B"/>
<path d="M0 15.3525V78.4572H2.8406V22.6096C4.42294 24.2668 6.59628 25.562 9.09372 26.5525V78.4382H13.3641V27.9239C14.0886 28.1144 14.813 28.3049 15.5565 28.4382L19.827 29.3715V78.4572H25.8895V30.6287L27.4146 30.9525V3.63818H18.7594C5.39522 3.63818 0 8.6858 0 15.3525Z" fill="#084D9B"/>
<path d="M146.91 3.63818V59.4858C145.328 57.8096 143.173 56.5334 140.676 55.5239V3.63818H136.405V54.1715C135.681 53.981 134.957 53.8096 134.232 53.6572L129.943 52.762V3.63818H123.899V51.4668L122.374 51.1429V78.4572H131.01C144.355 78.4572 149.731 73.3906 149.731 66.7429V3.63818H146.891H146.91Z" fill="#084D9B"/>
</g>
<defs>
<clipPath id="clip0_18429_41769">
<rect width="487" height="80.0002" fill="white"/>
</clipPath>
</defs>
</svg>
