<svg width="18" height="18" viewBox="0 0 18 18" fill="none" xmlns="http://www.w3.org/2000/svg">
<path fill-rule="evenodd" clip-rule="evenodd" d="M8.62737 1.07711C8.87126 1.01108 9.12832 1.01108 9.37221 1.07711C9.65455 1.15356 9.89308 1.34058 10.0958 1.49949C10.1144 1.51415 10.1328 1.52857 10.1509 1.54264L15.2377 5.49899C15.2564 5.51354 15.2749 5.52792 15.2932 5.54216C15.5787 5.76377 15.8194 5.95065 15.9985 6.19271C16.1558 6.40541 16.273 6.64503 16.3443 6.8998C16.4254 7.18972 16.4252 7.49448 16.4248 7.85587C16.4248 7.87909 16.4248 7.90254 16.4248 7.92624V13.379C16.4248 13.7764 16.4248 14.1148 16.4021 14.3926C16.3783 14.6845 16.326 14.9684 16.1877 15.2399C15.9792 15.6491 15.6465 15.9819 15.2372 16.1904C14.9658 16.3287 14.6818 16.3809 14.39 16.4048C14.1121 16.4275 13.7737 16.4275 13.3763 16.4274H4.62324C4.22584 16.4275 3.88745 16.4275 3.60963 16.4048C3.31776 16.3809 3.03381 16.3287 2.76236 16.1904C2.35311 15.9819 2.02038 15.6491 1.81185 15.2399C1.67354 14.9684 1.62132 14.6845 1.59747 14.3926C1.57477 14.1148 1.57478 13.7764 1.57479 13.379L1.57479 7.92624C1.57479 7.90254 1.57477 7.87909 1.57475 7.85587C1.57442 7.49448 1.57414 7.18973 1.6553 6.8998C1.72661 6.64503 1.8438 6.40541 2.00112 6.19271C2.18015 5.95065 2.42089 5.76376 2.70635 5.54215C2.72469 5.52791 2.74322 5.51353 2.76192 5.49899L7.84865 1.54264C7.86674 1.52857 7.88513 1.51415 7.90383 1.49949C8.1065 1.34058 8.34503 1.15356 8.62737 1.07711ZM5.32471 12.7504C5.32471 12.3776 5.62691 12.0754 5.99971 12.0754H11.9997C12.3725 12.0754 12.6747 12.3776 12.6747 12.7504C12.6747 13.1232 12.3725 13.4254 11.9997 13.4254H5.99971C5.62691 13.4254 5.32471 13.1232 5.32471 12.7504Z" fill="#899199"/>
</svg>
