<svg width="40" height="40" viewBox="0 0 40 40" fill="none" xmlns="http://www.w3.org/2000/svg">
<g clip-path="url(#clip0_7468_400001)">
<mask id="mask0_7468_400001" style="mask-type:alpha" maskUnits="userSpaceOnUse" x="0" y="0" width="40" height="40">
<path d="M20 40C31.0457 40 40 31.0457 40 20C40 8.95431 31.0457 0 20 0C8.95431 0 0 8.95431 0 20C0 31.0457 8.95431 40 20 40Z" fill="white"/>
</mask>
<g mask="url(#mask0_7468_400001)">
<path d="M20 40C31.0457 40 40 31.0457 40 20C40 8.95431 31.0457 0 20 0C8.95431 0 0 8.95431 0 20C0 31.0457 8.95431 40 20 40Z" fill="#FCFCFC"/>
<path d="M14.0983 21.1656C16.0249 22.4683 18.7084 21.9198 20.0157 20C21.3231 18.0802 23.9378 17.5317 25.9332 18.8344C27.791 20.0686 28.3415 22.4683 27.3094 24.3195C29.58 20.4799 28.5479 15.4748 24.6947 12.9379C20.7726 10.3324 15.4744 11.3609 12.8598 15.2691C12.791 15.4062 12.7221 15.5433 12.6533 15.6119C11.69 17.6003 12.3093 19.9314 14.0983 21.1656Z" fill="#DC1E11"/>
<path d="M25.9327 18.8346C24.0061 17.5319 21.3226 18.0804 20.0153 20.0002C18.7079 21.92 16.0932 22.4685 14.0978 21.1658C12.24 19.9316 11.6895 17.5319 12.7216 15.6807C10.3822 19.5203 11.4831 24.5254 15.3363 27.0623C19.2584 29.6678 24.5566 28.6393 27.1712 24.7311C27.24 24.594 27.3089 24.4569 27.3777 24.3883C28.341 22.4 27.7217 20.0688 25.9327 18.8346Z" fill="#005DC8"/>
<path d="M3.67969 14.4727L8.26172 7.63281L7.79688 7.30078L7.33203 7.03516L2.75 13.875L3.21484 14.1406L3.67969 14.4727Z" fill="#2C2F32"/>
<path d="M4.94141 15.3359L5.40625 15.6016L9.92188 8.76172L9.52344 8.49609L9.05859 8.16406L4.47656 15.0039L4.94141 15.3359Z" fill="#2C2F32"/>
<path d="M10.7187 9.29297L6.20312 16.1328L6.66797 16.4648L7.13281 16.7305L11.6484 9.89062L11.1836 9.625L10.7187 9.29297Z" fill="#2C2F32"/>
<path d="M30.707 27.2227L31.1719 27.5547L33.2969 24.3672L32.832 24.0352L32.3672 23.7695L30.2422 26.957L30.707 27.2227Z" fill="#2C2F32"/>
<path d="M35.8203 26.0273L33.6953 29.2148L34.1602 29.5469L34.625 29.8125L36.75 26.625L36.2852 26.3594L35.8203 26.0273Z" fill="#2C2F32"/>
<path d="M32.8984 28.6836L35.0234 25.4961L34.5586 25.1641L34.0937 24.8984L31.9688 28.0859L32.4336 28.3516L32.8984 28.6836Z" fill="#2C2F32"/>
<path d="M30.4414 27.6875L29.9766 27.4219L27.8516 30.6094L28.3164 30.875L28.7812 31.207L30.9063 28.0195L30.4414 27.6875Z" fill="#2C2F32"/>
<path d="M32.1016 28.8164L31.7031 28.5508L29.5781 31.7383L29.9766 32.0039L30.4414 32.3359L32.5664 29.1484L32.1016 28.8164Z" fill="#2C2F32"/>
<path d="M33.3633 29.6797L31.2383 32.8672L31.7031 33.1992L32.168 33.4648L34.293 30.2773L33.8281 29.9453L33.3633 29.6797Z" fill="#2C2F32"/>
<path d="M3.21484 26.3594L2.75 26.625L7.33203 33.4648L7.79688 33.1992L8.26172 32.8672L3.67969 26.0273L3.21484 26.3594Z" fill="#2C2F32"/>
<path d="M7.39844 28.8164L6.93359 29.1484L9.05859 32.3359L9.52344 32.0039L9.92188 31.7383L7.79688 28.5508L7.39844 28.8164Z" fill="#2C2F32"/>
<path d="M6.66797 24.0352L6.20312 24.3672L10.7187 31.207L11.1836 30.875L11.6484 30.6094L7.13281 23.7695L6.66797 24.0352Z" fill="#2C2F32"/>
<path d="M4.47656 25.4961L6.60156 28.6836L7.06641 28.3516L7.53125 28.0859L5.40625 24.8984L4.94141 25.1641L4.47656 25.4961Z" fill="#2C2F32"/>
<path d="M33.8281 10.5547L34.293 10.2227L32.168 7.03516L31.7031 7.30078L31.2383 7.63281L33.3633 10.8203L33.8281 10.5547Z" fill="#2C2F32"/>
<path d="M30.4414 12.8125L30.9063 12.4805L28.7812 9.29297L28.3164 9.625L27.8516 9.89062L29.9766 13.0781L30.4414 12.8125Z" fill="#2C2F32"/>
<path d="M33.6953 11.2852L35.8203 14.4727L36.2852 14.1406L36.75 13.875L34.625 10.6875L34.1602 10.9531L33.6953 11.2852Z" fill="#2C2F32"/>
<path d="M34.5586 15.3359L35.0234 15.0039L30.4414 8.16406L29.9766 8.49609L29.5781 8.76172L34.0938 15.6016L34.5586 15.3359Z" fill="#2C2F32"/>
<path d="M32.832 16.4648L33.2969 16.1328L31.1719 12.9453L30.707 13.2773L30.2422 13.543L32.3672 16.7305L32.832 16.4648Z" fill="#2C2F32"/>
</g>
</g>
<defs>
<clipPath id="clip0_7468_400001">
<rect width="40" height="40" rx="20" fill="white"/>
</clipPath>
</defs>
</svg>
