<svg width="40" height="40" viewBox="0 0 40 40" fill="none" xmlns="http://www.w3.org/2000/svg">
<path d="M0 16C0 10.3995 0 7.59921 1.08993 5.46009C2.04867 3.57847 3.57847 2.04867 5.46009 1.08993C7.59921 0 10.3995 0 16 0H24C29.6005 0 32.4008 0 34.5399 1.08993C36.4215 2.04867 37.9513 3.57847 38.9101 5.46009C40 7.59921 40 10.3995 40 16V24C40 29.6005 40 32.4008 38.9101 34.5399C37.9513 36.4215 36.4215 37.9513 34.5399 38.9101C32.4008 40 29.6005 40 24 40H16C10.3995 40 7.59921 40 5.46009 38.9101C3.57847 37.9513 2.04867 36.4215 1.08993 34.5399C0 32.4008 0 29.6005 0 24V16Z" fill="#FD6D6D"/>
<path fill-rule="evenodd" clip-rule="evenodd" d="M19.9996 10.9001C14.9738 10.9001 10.8996 14.9743 10.8996 20.0001C10.8996 25.0259 14.9738 29.1001 19.9996 29.1001C25.0254 29.1001 29.0996 25.0259 29.0996 20.0001C29.0996 14.9743 25.0254 10.9001 19.9996 10.9001ZM9.09961 20.0001C9.09961 13.9802 13.9797 9.1001 19.9996 9.1001C26.0195 9.1001 30.8996 13.9802 30.8996 20.0001C30.8996 26.02 26.0195 30.9001 19.9996 30.9001C13.9797 30.9001 9.09961 26.02 9.09961 20.0001ZM19.1922 15.5183C19.2011 15.524 19.21 15.5297 19.2189 15.5354L23.9395 18.5701C23.9477 18.5754 23.9559 18.5806 23.9641 18.5859C24.1166 18.6839 24.278 18.7876 24.4057 18.8872C24.5407 18.9925 24.7447 19.1715 24.8646 19.4552C25.0118 19.8036 25.0118 20.1966 24.8646 20.545C24.7447 20.8287 24.5407 21.0077 24.4057 21.113C24.278 21.2126 24.1166 21.3163 23.9641 21.4143C23.9559 21.4196 23.9477 21.4248 23.9395 21.4301L19.1922 24.4819C19.0149 24.5959 18.8338 24.7124 18.6753 24.7949C18.5159 24.8779 18.2393 25.005 17.8999 24.9807C17.4948 24.9518 17.1223 24.7484 16.8789 24.4233C16.6749 24.1509 16.6322 23.8495 16.6158 23.6705C16.5995 23.4926 16.5996 23.2772 16.5996 23.0664L16.5996 16.9654C16.5996 16.9549 16.5996 16.9443 16.5996 16.9338C16.5996 16.7229 16.5995 16.5076 16.6158 16.3297C16.6322 16.1507 16.6749 15.8493 16.8789 15.5769C17.1223 15.2518 17.4948 15.0484 17.8999 15.0195C18.2393 14.9952 18.5159 15.1223 18.6753 15.2053C18.8338 15.2878 19.0149 15.4043 19.1922 15.5183ZM18.3996 17.1486V22.8516L22.8353 20.0001L18.3996 17.1486Z" fill="white"/>
</svg>
