<svg width="24" height="24" viewBox="0 0 24 24" fill="none" xmlns="http://www.w3.org/2000/svg">
<path d="M18.7059 21H5.29412C4.5794 21 4 20.4244 4 19.7143V4.28571C4 3.57563 4.5794 3 5.29412 3H14L20 8.96104V19.7143C20 20.4244 19.4206 21 18.7059 21Z" fill="#F04438"/>
<path d="M20.0537 9H15.9545C14.9047 9 14.0537 8.14898 14.0537 7.0992V3L20.0537 9Z" fill="#C11A0E"/>
<path d="M14.0863 13.2012H15.8515V13.5175H14.4266V14.34H15.7207V14.6563H14.4266V15.7988H14.0863V13.2012Z" fill="white"/>
<path fill-rule="evenodd" clip-rule="evenodd" d="M13.8841 13H16.0537V13.7187H14.6288V14.1388H15.9228V14.8575H14.6288V16H13.8841V13ZM14.4266 14.6563H15.7207V14.34H14.4266V13.5175H15.8515V13.2012H14.0863V15.7988H14.4266V14.6563Z" fill="white"/>
<path d="M11.9395 13.2012C12.154 13.2012 12.3472 13.2396 12.5192 13.3165C12.6938 13.391 12.8334 13.4915 12.9381 13.618C13.1525 13.8735 13.2597 14.1675 13.2597 14.5C13.2597 14.7655 13.1899 15.0074 13.0503 15.2257C12.8982 15.4664 12.6875 15.6326 12.4183 15.7244C12.2712 15.774 12.1116 15.7988 11.9395 15.7988H11.0195V13.2012H11.9395ZM11.8984 15.4825C12.2076 15.4825 12.4557 15.3919 12.6427 15.2108C12.7834 15.0745 12.8712 14.9065 12.906 14.7069C12.9174 14.6414 12.9232 14.5724 12.9232 14.5C12.9232 14.2131 12.8334 13.9798 12.6537 13.8001C12.6501 13.7964 12.6464 13.7928 12.6427 13.7892C12.4557 13.6081 12.2076 13.5175 11.8984 13.5175H11.3598V15.4825H11.8984Z" fill="white"/>
<path fill-rule="evenodd" clip-rule="evenodd" d="M12.4832 15.9149C12.313 15.9723 12.1313 16 11.9395 16H10.8173V13H11.9395C12.178 13 12.3995 13.0428 12.6005 13.1323C12.7994 13.2174 12.9663 13.3356 13.0942 13.4901L12.9381 13.618L13.0933 13.4891C13.338 13.7807 13.4619 14.1203 13.4619 14.5C13.4619 14.8025 13.3818 15.0819 13.2212 15.3333C13.0446 15.6125 12.7962 15.8082 12.4832 15.9149ZM13.0503 15.2257C12.8982 15.4664 12.6875 15.6326 12.4183 15.7244C12.2712 15.774 12.1116 15.7988 11.9395 15.7988H11.0195V13.2012H11.9395C12.154 13.2012 12.3472 13.2396 12.5192 13.3165M11.8984 15.2813C12.1653 15.2813 12.3593 15.2046 12.5017 15.0667C12.6444 14.9284 12.721 14.7461 12.721 14.5C12.721 14.2539 12.6444 14.0716 12.5017 13.9333C12.3593 13.7954 12.1653 13.7187 11.8984 13.7187H11.562V15.2813H11.8984ZM11.8984 15.4825C12.2076 15.4825 12.4557 15.3919 12.6427 15.2108C12.7834 15.0745 12.8712 14.9065 12.906 14.7069C12.9174 14.6414 12.9232 14.5724 12.9232 14.5C12.9232 14.2131 12.8334 13.9798 12.6537 13.8001C12.6501 13.7964 12.6464 13.7928 12.6427 13.7892C12.4557 13.6081 12.2076 13.5175 11.8984 13.5175H11.3598V15.4825H11.8984Z" fill="white"/>
<path d="M9.27688 13.2012C9.4564 13.2012 9.61348 13.226 9.74812 13.2756C9.88276 13.3227 9.98623 13.3872 10.0585 13.4691C10.1333 13.551 10.1882 13.6391 10.2231 13.7334C10.258 13.8252 10.2755 13.9232 10.2755 14.0274C10.2755 14.1316 10.258 14.2308 10.2231 14.3251C10.1882 14.4169 10.1333 14.5037 10.0585 14.5856C9.98623 14.6675 9.88276 14.7332 9.74812 14.7828C9.61348 14.83 9.4564 14.8536 9.27688 14.8536H8.59621V15.7988H8.25587V13.2012H9.27688ZM9.24322 14.5335C9.49754 14.5335 9.67581 14.4851 9.77804 14.3884C9.88276 14.2916 9.93512 14.1713 9.93512 14.0274C9.93512 13.8835 9.88276 13.7631 9.77804 13.6664C9.67581 13.5696 9.49754 13.5212 9.24322 13.5212H8.59621V14.5335H9.24322Z" fill="white"/>
<path fill-rule="evenodd" clip-rule="evenodd" d="M9.77804 13.6664C9.67581 13.5696 9.49754 13.5212 9.24322 13.5212H8.59621V14.5335H9.24322C9.49754 14.5335 9.67581 14.4851 9.77804 14.3884C9.88276 14.2916 9.93512 14.1713 9.93512 14.0274C9.93512 13.8835 9.88276 13.7631 9.77804 13.6664ZM9.74812 14.7828C9.61348 14.83 9.4564 14.8536 9.27688 14.8536H8.59621V15.7988H8.25587V13.2012H9.27688C9.4564 13.2012 9.61348 13.226 9.74812 13.2756C9.88276 13.3227 9.98623 13.3872 10.0585 13.4691C10.1333 13.551 10.1882 13.6391 10.2231 13.7334C10.258 13.8252 10.2755 13.9232 10.2755 14.0274C10.2755 14.1316 10.258 14.2308 10.2231 14.3251C10.1882 14.4169 10.1333 14.5037 10.0585 14.5856C9.98623 14.6675 9.88276 14.7332 9.74812 14.7828ZM10.4125 13.663C10.4564 13.7787 10.4776 13.9006 10.4776 14.0274C10.4776 14.1544 10.4562 14.2773 10.4128 14.3946L10.4122 14.3963C10.3674 14.5141 10.2984 14.6218 10.2093 14.7197L10.2081 14.7209L10.0585 14.5856L10.2104 14.7184L10.2093 14.7197C10.1091 14.8325 9.97438 14.914 9.81833 14.9715L9.81523 14.9726C9.65429 15.029 9.47362 15.0547 9.27688 15.0547H8.79837V16H8.05371V13H9.27688C9.47397 13 9.65522 13.0271 9.81677 13.0864C9.97321 13.1414 10.1086 13.2216 10.2092 13.335C10.299 13.4336 10.3679 13.5429 10.4125 13.663ZM8.79837 14.3323H9.24322C9.48339 14.3323 9.59456 14.2844 9.63871 14.2426L9.64047 14.2409C9.70344 14.1827 9.73296 14.1161 9.73296 14.0274C9.73296 13.9386 9.70345 13.872 9.64048 13.8138L9.6387 13.8121C9.59455 13.7703 9.48339 13.7224 9.24322 13.7224H8.79837V14.3323Z" fill="white"/>
<path d="M12.906 14.7069C12.9174 14.6414 12.9232 14.5724 12.9232 14.5C12.9232 14.2131 12.8334 13.9798 12.6537 13.8001L12.906 14.7069Z" fill="white"/>
</svg>
