<svg width="24" height="24" viewBox="0 0 24 24" fill="none" xmlns="http://www.w3.org/2000/svg">
<path d="M18.7596 21H5.34783C4.63311 21 4.05371 20.4244 4.05371 19.7143V4.28571C4.05371 3.57563 4.63311 3 5.34783 3H14.0537L20.0537 8.96104V19.7143C20.0537 20.4244 19.4743 21 18.7596 21Z" fill="#1EA465"/>
<path d="M20.0537 9H15.9897C14.9205 9 14.0537 8.13322 14.0537 7.064V3L20.0537 9Z" fill="#157347"/>
<path d="M14.3679 13.9848C14.3679 14.089 14.4082 14.175 14.489 14.2427C14.5723 14.3104 14.6752 14.3586 14.7977 14.3873C14.9201 14.4133 15.0529 14.4472 15.1962 14.4889C15.3421 14.5279 15.4762 14.5709 15.5986 14.6178C15.7211 14.6647 15.8226 14.7428 15.9034 14.8522C15.9868 14.959 16.0284 15.0932 16.0284 15.2547C16.0284 15.4787 15.936 15.6623 15.751 15.8056C15.5687 15.9462 15.3134 16.0166 14.9852 16.0166C14.657 16.0166 14.3444 15.9462 14.0475 15.8056V15.4578H14.067C14.3379 15.6089 14.6466 15.6845 14.993 15.6845C15.4489 15.6845 15.6768 15.5334 15.6768 15.2312C15.6768 15.0827 15.5661 14.9733 15.3447 14.903C15.2483 14.8718 15.1415 14.8418 15.0243 14.8132C14.9071 14.7845 14.7885 14.7506 14.6687 14.7116C14.5515 14.6725 14.4434 14.6269 14.3444 14.5748C14.248 14.5201 14.1686 14.4459 14.1061 14.3521C14.0462 14.2557 14.0162 14.1424 14.0162 14.0122C14.0162 13.7856 14.1048 13.5954 14.2819 13.4417C14.4616 13.288 14.7026 13.2112 15.0047 13.2112C15.3095 13.2112 15.5843 13.2581 15.8292 13.3519V13.684H15.8018C15.557 13.585 15.3212 13.5355 15.0946 13.5355C14.8706 13.5355 14.6935 13.5759 14.5632 13.6566C14.433 13.7348 14.3679 13.8442 14.3679 13.9848Z" fill="white"/>
<path d="M13.4373 15.6219V15.9775H11.6439V13.2503H11.9994V15.6219H13.4373Z" fill="white"/>
<path d="M9.88585 14.61L10.9408 15.9775H10.4993L9.68268 14.8835H9.66314L8.85826 15.9775H8.43628L9.48341 14.6139L8.43628 13.2503H8.8817L9.68268 14.3365H9.70221L10.4993 13.2503H10.9291L9.88585 14.61Z" fill="white"/>
<path fill-rule="evenodd" clip-rule="evenodd" d="M14.6687 14.7116C14.5515 14.6725 14.4434 14.6269 14.3444 14.5748C14.248 14.5201 14.1686 14.4459 14.1061 14.3521C14.0462 14.2557 14.0162 14.1424 14.0162 14.0122C14.0162 13.7856 14.1048 13.5954 14.2819 13.4417C14.4616 13.288 14.7026 13.2112 15.0047 13.2112C15.3095 13.2112 15.5843 13.2581 15.8292 13.3519V13.684H15.8018C15.7399 13.659 15.6787 13.6371 15.618 13.6184C15.4384 13.5631 15.264 13.5355 15.0946 13.5355C14.8706 13.5355 14.6935 13.5759 14.5632 13.6566C14.433 13.7348 14.3679 13.8442 14.3679 13.9848C14.3679 14.089 14.4082 14.175 14.489 14.2427C14.5723 14.3104 14.6752 14.3586 14.7977 14.3873C14.9201 14.4133 15.0529 14.4472 15.1962 14.4889C15.3421 14.5279 15.4762 14.5709 15.5986 14.6178C15.7211 14.6647 15.8226 14.7428 15.9034 14.8522C15.9868 14.959 16.0284 15.0932 16.0284 15.2547C16.0284 15.4787 15.936 15.6623 15.751 15.8056C15.5687 15.9462 15.3134 16.0166 14.9852 16.0166C14.657 16.0166 14.3444 15.9462 14.0475 15.8056V15.4578H14.067C14.1289 15.4924 14.1928 15.523 14.2587 15.5496C14.481 15.6395 14.7258 15.6845 14.993 15.6845C15.4489 15.6845 15.6768 15.5334 15.6768 15.2312C15.6768 15.0827 15.5661 14.9733 15.3447 14.903C15.2483 14.8718 15.1415 14.8418 15.0243 14.8132C14.9071 14.7845 14.7885 14.7506 14.6687 14.7116ZM16.0717 14.7246C16.188 14.8748 16.2396 15.0565 16.2396 15.2547C16.2396 15.5473 16.1143 15.7913 15.8804 15.9725C15.6482 16.1516 15.3408 16.2278 14.9852 16.2278C14.6257 16.2278 14.2822 16.1505 13.9571 15.9965L13.8363 15.9392V15.2466H14.1219L14.1699 15.2734C14.4058 15.4049 14.6783 15.4733 14.993 15.4733C15.2043 15.4733 15.3259 15.437 15.3892 15.3951C15.4371 15.3633 15.4656 15.3203 15.4656 15.2312C15.4656 15.2164 15.4627 15.2052 15.4453 15.188C15.4225 15.1655 15.374 15.1339 15.2807 15.1043C15.1901 15.0749 15.0872 15.046 14.9741 15.0183C14.8515 14.9883 14.7279 14.953 14.6032 14.9124L14.6019 14.9119C14.475 14.8696 14.3562 14.8197 14.2461 14.7617L14.2401 14.7586C14.1145 14.6873 14.0109 14.59 13.9304 14.4693L13.9266 14.4637C13.843 14.3291 13.805 14.1759 13.805 14.0122C13.805 13.722 13.922 13.4744 14.1435 13.2822L14.1447 13.2812C14.3723 13.0866 14.6666 13 15.0047 13C15.3312 13 15.6322 13.0503 15.9047 13.1546L16.0404 13.2066V13.8952H15.7607L15.7227 13.8798C15.4989 13.7893 15.29 13.7467 15.0946 13.7467C14.8928 13.7467 14.7593 13.7836 14.6745 13.8361L14.6719 13.8377C14.5991 13.8814 14.5791 13.9252 14.5791 13.9848C14.5791 14.0253 14.5909 14.0521 14.6235 14.0799C14.6776 14.1235 14.749 14.1587 14.8439 14.1812C14.9709 14.2083 15.1074 14.2431 15.253 14.2854C15.4041 14.326 15.5446 14.3709 15.6742 14.4206C15.8349 14.4821 15.9681 14.5851 16.0717 14.7246Z" fill="white"/>
<path fill-rule="evenodd" clip-rule="evenodd" d="M13.6485 15.4107V16.1887H11.4327V13.0391H12.2106V15.4107H13.6485ZM13.4373 15.6219H11.9994V13.2503H11.6439V15.9775H13.4373V15.6219Z" fill="white"/>
<path fill-rule="evenodd" clip-rule="evenodd" d="M8.8817 13.2503L9.68268 14.3365H9.70221L10.4993 13.2503H10.9291L9.88585 14.61L10.9408 15.9775H10.4993L9.68268 14.8835H9.66314L8.85826 15.9775H8.43628L9.48341 14.6139L8.43628 13.2503H8.8817ZM9.21712 14.6139L8.00781 13.0391H8.98837L9.69205 13.9933L10.3923 13.0391H11.3573L10.1523 14.6096L11.3705 16.1887H10.3934L9.67407 15.225L8.96508 16.1887H8.00781L9.21712 14.6139Z" fill="white"/>
</svg>
