<svg width="16" height="16" viewBox="0 0 16 16" fill="none" xmlns="http://www.w3.org/2000/svg">
<g clip-path="url(#clip0_3083_24512)">
<path d="M0 8C0 3.58172 3.58172 0 8 0C12.4183 0 16 3.58172 16 8C16 12.4183 12.4183 16 8 16C3.58172 16 0 12.4183 0 8Z" fill="#62C446"/>
<path d="M0 6.4C0 4.15979 0 3.03969 0.435974 2.18404C0.819467 1.43139 1.43139 0.819467 2.18404 0.435974C3.03969 0 4.15979 0 6.4 0H9.6C11.8402 0 12.9603 0 13.816 0.435974C14.5686 0.819467 15.1805 1.43139 15.564 2.18404C16 3.03969 16 4.15979 16 6.4V9.6C16 11.8402 16 12.9603 15.564 13.816C15.1805 14.5686 14.5686 15.1805 13.816 15.564C12.9603 16 11.8402 16 9.6 16H6.4C4.15979 16 3.03969 16 2.18404 15.564C1.43139 15.1805 0.819467 14.5686 0.435974 13.816C0 12.9603 0 11.8402 0 9.6V6.4Z" fill="#62C446"/>
<g clip-path="url(#clip1_3083_24512)">
<path fill-rule="evenodd" clip-rule="evenodd" d="M5.52116 4.79936C5.7032 4.78449 5.93803 4.78421 6.28 4.78421H7.36C7.55882 4.78421 7.72 4.62303 7.72 4.42421C7.72 4.22539 7.55882 4.06421 7.36 4.06421L6.26492 4.06421C5.9417 4.06421 5.67736 4.0642 5.46253 4.08176C5.24016 4.09992 5.03933 4.13868 4.85178 4.23424C4.55824 4.3838 4.31959 4.62245 4.17003 4.91599C4.07447 5.10354 4.03571 5.30437 4.01754 5.52674C3.99999 5.74157 4 6.00591 4 6.32913V10.1193C4 10.4425 3.99999 10.7069 4.01754 10.9217C4.03571 11.144 4.07447 11.3449 4.17003 11.5324C4.31959 11.826 4.55824 12.0646 4.85177 12.2142C5.03933 12.3097 5.24016 12.3485 5.46253 12.3667C5.67736 12.3842 5.9417 12.3842 6.26492 12.3842H9.25508C9.5783 12.3842 9.84264 12.3842 10.0575 12.3667C10.2798 12.3485 10.4807 12.3097 10.6682 12.2142C10.9618 12.0646 11.2004 11.826 11.35 11.5324C11.4455 11.3449 11.4843 11.144 11.5025 10.9217C11.52 10.7069 11.52 9.24251 11.52 8.91929V8.62421C11.52 8.42539 11.3588 8.26421 11.16 8.26421C10.9612 8.26421 10.8 8.42539 10.8 8.62421V8.90421C10.8 9.24618 10.7997 10.681 10.7848 10.8631C10.7703 11.0409 10.7437 11.1364 10.7084 11.2056C10.6279 11.3636 10.4994 11.4921 10.3414 11.5727C10.2722 11.6079 10.1767 11.6345 9.99884 11.6491C9.8168 11.6639 9.58197 11.6642 9.24 11.6642H6.28C5.93803 11.6642 5.7032 11.6639 5.52116 11.6491C5.34332 11.6345 5.24779 11.6079 5.17865 11.5727C5.02059 11.4921 4.89209 11.3636 4.81155 11.2056C4.77633 11.1364 4.74968 11.0409 4.73515 10.8631C4.72028 10.681 4.72 10.4462 4.72 10.1042V6.34421C4.72 6.00224 4.72028 5.76741 4.73515 5.58537C4.74968 5.40753 4.77633 5.312 4.81155 5.24286C4.89209 5.0848 5.02059 4.9563 5.17865 4.87577C5.24779 4.84054 5.34332 4.81389 5.52116 4.79936Z" fill="white"/>
<path fill-rule="evenodd" clip-rule="evenodd" d="M9.90545 3.97018C10.3774 3.49822 11.1426 3.49822 11.6146 3.97018C12.0865 4.44214 12.0865 5.20734 11.6146 5.6793L8.18947 9.10439C8.18191 9.11196 8.17443 9.11945 8.16702 9.12687C8.05081 9.24327 7.95273 9.3415 7.83474 9.4138C7.73095 9.4774 7.6178 9.52427 7.49944 9.55269C7.36488 9.58499 7.22607 9.58489 7.06159 9.58476C7.0511 9.58475 7.04052 9.58474 7.02982 9.58474H6.36C6.16118 9.58474 6 9.42356 6 9.22474V8.55493C6 8.54424 5.99999 8.53365 5.99998 8.52316C5.99985 8.35868 5.99975 8.21988 6.03205 8.08531C6.06047 7.96695 6.10734 7.8538 6.17094 7.75001C6.24324 7.63202 6.34147 7.53394 6.45787 7.41773C6.46529 7.41032 6.47278 7.40284 6.48035 7.39528L9.90545 3.97018ZM11.1055 4.4793C10.9147 4.28852 10.6054 4.28852 10.4146 4.4793L6.98946 7.9044C6.83898 8.05487 6.80687 8.09026 6.78484 8.12621C6.76071 8.16558 6.74294 8.2085 6.73216 8.2534C6.72231 8.2944 6.72 8.34213 6.72 8.55493V8.86474H7.02982C7.24262 8.86474 7.29035 8.86243 7.33136 8.85258C7.37625 8.8418 7.41917 8.82403 7.45854 8.7999C7.49449 8.77787 7.52988 8.74576 7.68036 8.59528L11.1055 5.17018C11.2962 4.9794 11.2962 4.67008 11.1055 4.4793Z" fill="white"/>
</g>
</g>
<defs>
<clipPath id="clip0_3083_24512">
<rect width="16" height="16" fill="white"/>
</clipPath>
<clipPath id="clip1_3083_24512">
<rect width="9.6" height="9.6" fill="white" transform="translate(3.2002 3.2002)"/>
</clipPath>
</defs>
</svg>
