<svg width="40" height="40" viewBox="0 0 40 40" fill="none" xmlns="http://www.w3.org/2000/svg">
<path d="M0 16C0 10.3995 0 7.59921 1.08993 5.46009C2.04867 3.57847 3.57847 2.04867 5.46009 1.08993C7.59921 0 10.3995 0 16 0H24C29.6005 0 32.4008 0 34.5399 1.08993C36.4215 2.04867 37.9513 3.57847 38.9101 5.46009C40 7.59921 40 10.3995 40 16V24C40 29.6005 40 32.4008 38.9101 34.5399C37.9513 36.4215 36.4215 37.9513 34.5399 38.9101C32.4008 40 29.6005 40 24 40H16C10.3995 40 7.59921 40 5.46009 38.9101C3.57847 37.9513 2.04867 36.4215 1.08993 34.5399C0 32.4008 0 29.6005 0 24V16Z" fill="#EBCD00"/>
<path fill-rule="evenodd" clip-rule="evenodd" d="M18.09 12.0546C17.9694 12.013 17.8127 12 17.0223 12H13.2C12.6234 12 12.2512 12.0007 11.9678 12.0239C11.6962 12.0461 11.5955 12.0838 11.546 12.109C11.3578 12.2048 11.2049 12.3578 11.109 12.546C11.0838 12.5954 11.0461 12.6961 11.0239 12.9678C11.0036 13.217 11.0005 13.5349 11.0001 14H19.382L18.99 13.2161C18.6366 12.5091 18.5548 12.3748 18.4637 12.2856C18.3578 12.1818 18.2301 12.103 18.09 12.0546ZM21.618 14L20.7789 12.3217C20.7602 12.2843 20.7417 12.2472 20.7234 12.2104C20.4586 11.6792 20.2258 11.212 19.8631 10.8567C19.5454 10.5456 19.1625 10.3089 18.7421 10.1639C18.2622 9.99839 17.7402 9.99908 17.1467 9.99986C17.1055 9.99992 17.0641 9.99997 17.0223 9.99997L13.1615 9.99997C12.6343 9.99995 12.1795 9.99994 11.805 10.0305C11.4096 10.0628 11.0164 10.1342 10.638 10.327C10.0735 10.6146 9.6146 11.0735 9.32698 11.638C9.13419 12.0164 9.06287 12.4096 9.03057 12.8049C8.99997 13.1795 8.99998 13.6343 9 14.1614L9 24.2413C8.99999 25.0462 8.99998 25.7106 9.0442 26.2518C9.09012 26.8139 9.18868 27.3306 9.43598 27.8159C9.81947 28.5686 10.4314 29.1805 11.184 29.564C11.6694 29.8113 12.1861 29.9099 12.7482 29.9558C13.2894 30 13.9537 30 14.7587 30H25.2413C26.0463 30 26.7106 30 27.2518 29.9558C27.8139 29.9099 28.3306 29.8113 28.816 29.564C29.5686 29.1805 30.1805 28.5686 30.564 27.8159C30.8113 27.3306 30.9099 26.8139 30.9558 26.2518C31 25.7106 31 25.0463 31 24.2413V19.7586C31 18.9537 31 18.2893 30.9558 17.7481C30.9099 17.186 30.8113 16.6693 30.564 16.184C30.1805 15.4314 29.5686 14.8194 28.816 14.4359C28.3306 14.1887 27.8139 14.0901 27.2518 14.0442C26.7106 13.9999 26.0463 14 25.2413 14L21.618 14ZM20.9799 16C20.9938 16.0003 21.0077 16.0003 21.0217 16H25.2C26.0566 16 26.6389 16.0007 27.089 16.0375C27.5274 16.0733 27.7516 16.1383 27.908 16.218C28.2843 16.4097 28.5903 16.7157 28.782 17.092C28.8617 17.2484 28.9266 17.4726 28.9625 17.911C28.9992 18.3611 29 18.9434 29 19.8V24.2C29 25.0566 28.9992 25.6388 28.9625 26.0889C28.9266 26.5273 28.8617 26.7516 28.782 26.908C28.5903 27.2843 28.2843 27.5902 27.908 27.782C27.7516 27.8617 27.5274 27.9266 27.089 27.9624C26.6389 27.9992 26.0566 28 25.2 28H14.8C13.9434 28 13.3611 27.9992 12.911 27.9624C12.4726 27.9266 12.2484 27.8617 12.092 27.782C11.7157 27.5902 11.4097 27.2843 11.218 26.908C11.1383 26.7516 11.0734 26.5273 11.0376 26.0889C11.0008 25.6388 11 25.0566 11 24.2V16H20.9799Z" fill="white"/>
</svg>
