<svg width="40" height="40" viewBox="0 0 40 40" fill="none" xmlns="http://www.w3.org/2000/svg">
<rect width="40" height="40" rx="10" fill="#FF9543"/>
<path d="M0 16C0 10.3995 0 7.59921 1.08993 5.46009C2.04867 3.57847 3.57847 2.04867 5.46009 1.08993C7.59921 0 10.3995 0 16 0H24C29.6005 0 32.4008 0 34.5399 1.08993C36.4215 2.04867 37.9513 3.57847 38.9101 5.46009C40 7.59921 40 10.3995 40 16V24C40 29.6005 40 32.4008 38.9101 34.5399C37.9513 36.4215 36.4215 37.9513 34.5399 38.9101C32.4008 40 29.6005 40 24 40H16C10.3995 40 7.59921 40 5.46009 38.9101C3.57847 37.9513 2.04867 36.4215 1.08993 34.5399C0 32.4008 0 29.6005 0 24V16Z" fill="#FF9543"/>
<path fill-rule="evenodd" clip-rule="evenodd" d="M16.0996 12.9996C16.0996 10.8457 17.8457 9.09961 19.9996 9.09961C22.1535 9.09961 23.8996 10.8457 23.8996 12.9996V19.9996C23.8996 22.1535 22.1535 23.8996 19.9996 23.8996C17.8457 23.8996 16.0996 22.1535 16.0996 19.9996V12.9996ZM19.9996 10.8996C18.8398 10.8996 17.8996 11.8398 17.8996 12.9996V19.9996C17.8996 21.1594 18.8398 22.0996 19.9996 22.0996C21.1594 22.0996 22.0996 21.1594 22.0996 19.9996V12.9996C22.0996 11.8398 21.1594 10.8996 19.9996 10.8996ZM12.9996 17.0996C13.4967 17.0996 13.8996 17.5026 13.8996 17.9996V19.9996C13.8996 23.3685 16.6307 26.0996 19.9996 26.0996C23.3685 26.0996 26.0996 23.3685 26.0996 19.9996V17.9996C26.0996 17.5026 26.5026 17.0996 26.9996 17.0996C27.4967 17.0996 27.8996 17.5026 27.8996 17.9996V19.9996C27.8996 24.0583 24.8389 27.4022 20.8996 27.8489V29.0996H23.9996C24.4967 29.0996 24.8996 29.5026 24.8996 29.9996C24.8996 30.4967 24.4967 30.8996 23.9996 30.8996H15.9996C15.5026 30.8996 15.0996 30.4967 15.0996 29.9996C15.0996 29.5026 15.5026 29.0996 15.9996 29.0996H19.0996V27.8489C15.1604 27.4022 12.0996 24.0583 12.0996 19.9996V17.9996C12.0996 17.5026 12.5026 17.0996 12.9996 17.0996Z" fill="white"/>
</svg>
