<svg width="40" height="40" viewBox="0 0 40 40" fill="none" xmlns="http://www.w3.org/2000/svg">
<g clip-path="url(#clip0_7966_263092)">
<path d="M0 16C0 10.3995 0 7.59921 1.08993 5.46009C2.04867 3.57847 3.57847 2.04867 5.46009 1.08993C7.59921 0 10.3995 0 16 0H24C29.6005 0 32.4008 0 34.5399 1.08993C36.4215 2.04867 37.9513 3.57847 38.9101 5.46009C40 7.59921 40 10.3995 40 16V24C40 29.6005 40 32.4008 38.9101 34.5399C37.9513 36.4215 36.4215 37.9513 34.5399 38.9101C32.4008 40 29.6005 40 24 40H16C10.3995 40 7.59921 40 5.46009 38.9101C3.57847 37.9513 2.04867 36.4215 1.08993 34.5399C0 32.4008 0 29.6005 0 24V16Z" fill="#62C446"/>
<path d="M16.9185 17.3758C16.904 17.3381 16.8975 17.2978 16.8992 17.2574C17.0179 15.1374 18.7529 14.3999 20.3367 14.3999C22.0829 14.3999 23.6779 15.3124 23.6779 17.2012C23.6779 18.5499 22.8842 19.1924 22.1229 19.7712C21.2017 20.4699 20.8604 20.7312 20.8604 21.6287V21.7599C20.8604 21.8428 20.8275 21.9223 20.7689 21.9809C20.7103 22.0395 20.6308 22.0724 20.5479 22.0724H19.5342C19.4522 22.0724 19.3734 22.0402 19.315 21.9826C19.2565 21.9251 19.223 21.8469 19.2217 21.7649L19.2179 21.4937C19.1704 20.3349 19.8367 19.6212 20.6779 19.0099C21.4167 18.4549 21.8842 18.0899 21.8842 17.2962C21.8842 16.2649 21.0992 15.8362 20.2417 15.8362C19.2392 15.8362 18.6767 16.4337 18.5642 17.2537C18.5417 17.4249 18.4042 17.5662 18.2317 17.5662H17.2004C17.16 17.5669 17.1199 17.5593 17.0826 17.544C17.0452 17.5286 17.0114 17.5058 16.9831 17.4768C16.9549 17.4479 16.9329 17.4135 16.9185 17.3758Z" fill="white"/>
<path d="M20.1079 25.6199C19.3767 25.6199 18.8454 25.1274 18.8454 24.4612C18.8454 23.7712 19.3767 23.2862 20.1067 23.2862C20.8679 23.2862 21.3929 23.7712 21.3929 24.4612C21.3929 25.1274 20.8692 25.6199 20.1079 25.6199Z" fill="white"/>
<path fill-rule="evenodd" clip-rule="evenodd" d="M20.0992 9.19971C14.0793 9.19971 9.19922 14.0798 9.19922 20.0997C9.19922 26.1196 14.0793 30.9997 20.0992 30.9997C26.1191 30.9997 30.9992 26.1196 30.9992 20.0997C30.9992 14.0798 26.1191 9.19971 20.0992 9.19971ZM10.9992 20.0997C10.9992 15.0739 15.0734 10.9997 20.0992 10.9997C25.125 10.9997 29.1992 15.0739 29.1992 20.0997C29.1992 25.1255 25.125 29.1997 20.0992 29.1997C15.0734 29.1997 10.9992 25.1255 10.9992 20.0997Z" fill="white"/>
</g>
<defs>
<clipPath id="clip0_7966_263092">
<rect width="40" height="40" rx="10" fill="white"/>
</clipPath>
</defs>
</svg>
